<?xml version="1.0" encoding="UTF-8"?> <svg xmlns="http://www.w3.org/2000/svg" xmlns:xlink="http://www.w3.org/1999/xlink" version="1.1" id="Layer_1" x="0px" y="0px" viewBox="0 0 310 56.7" style="enable-background:new 0 0 310 56.7;" xml:space="preserve"> <style type="text/css"> .st0{fill:#0A2D61;} .st1{fill:#00C0E8;} </style> <path class="st0" d="M59.9,29.8c-1.2,0-2.5-0.1-3.6-0.2v10c0,0.5,0.4,0.7,1.9,0.9l2.5,0.2l0.2,2.1H45.5l0.2-2.1l1.9-0.2 c1.3-0.1,1.8-0.4,1.8-1V13c0-0.5-0.3-0.7-2-1l-1.7-0.2l-0.2-2.1h14.9c8.9,0,13.6,3.8,13.6,9.2C74,25.9,67.3,29.8,59.9,29.8 L59.9,29.8z M59.3,11.9h-3v15.2c1.1,0.2,2.2,0.4,3.3,0.4c4,0,6.7-3.1,6.7-7.7S63.8,11.9,59.3,11.9z"></path> <path class="st0" d="M92.8,25.2c-1.6,0-2.7-1-3.3-2.1c-1.4,0.9-3.3,2.6-4.7,4.8v11.7c0,0.5,0.3,0.9,2,1l1.8,0.2l0.1,2.1H75.5 l0.2-2.1l1.2-0.2c1.3-0.1,1.8-0.4,1.8-1V26.9c0-3.3-0.4-3.8-2.3-4.3l-1-0.3l0-1.6l9.5-2.6v6.6h0.3c2.4-4,4.3-6.6,7.1-6.6 c2.3,0,3.8,1.4,3.8,3.7C96,23.6,94.8,25.2,92.8,25.2L92.8,25.2z"></path> <path class="st0" d="M108.1,43.6c-7.7,0-12.2-5.7-12.2-12.6s5.8-13,13.4-13c7.6,0,12.1,5.6,12.1,12.4 C121.4,37.7,115.8,43.6,108.1,43.6z M112,22c-0.7-0.8-1.9-1.5-3.5-1.5c-3.3,0-5.7,3.4-5.7,9.1c0,4.6,0.6,8.3,2.4,10.2 c0.7,0.7,2,1.4,3.6,1.4c3.3,0,5.7-3.6,5.7-9.1C114.5,27.6,113.7,23.8,112,22z"></path> <path class="st0" d="M147.5,42.8h-26.2l0.2-2.1l1.9-0.3c1.3-0.2,1.8-0.4,1.8-1V13c0-0.5-0.3-0.7-2-1l-1.7-0.3l-0.2-2.1h15l-0.1,2.1 l-2.1,0.3c-1.5,0.2-1.9,0.5-1.9,1v27.3h0.9c8.3,0,9.2-0.5,10.4-4.1l1.3-4.3h3.8L147.5,42.8L147.5,42.8z"></path> <path class="st0" d="M150.1,42.8l0.2-2.1l1.2-0.2c1.3-0.1,1.8-0.4,1.8-1V26.8c0-3.3-0.4-3.8-2.3-4.3l-1.1-0.3l0-1.6l9.5-2.6v21.6 c0,0.5,0.3,0.9,2,1l1.2,0.2l0.1,2.1H150.1L150.1,42.8z M156,14.3c-2.3,0-3.8-1.8-3.8-3.9s1.5-3.9,3.8-3.9s3.8,1.8,3.8,3.9 S158.2,14.3,156,14.3z"></path> <path class="st0" d="M173.2,43.6c-4.2,0-6.9-2.4-6.8-7.8l0.3-13.4l-4.1-0.4l0.1-1.9l3.8-3.3l3.8-3.4l2.5,0.3l0,5.2h8.6l-0.4,3.2 h-8.3l-0.3,11.6c0,4.1,1.8,5.4,4.4,5.4c1.3,0,3.1-0.4,4.5-1.1l0.2,1.5C179.5,42,176.4,43.6,173.2,43.6z"></path> <path class="st0" d="M193.2,43.6c-6.4,0-11.2-4.9-11.2-12c0-7.8,5.6-13.6,13-13.6c5.1,0,8.9,3,8.9,8.2c0,0.9-0.1,2-0.3,2.9 l-15.1-0.2v0.6c0,5.8,3,9.6,7.5,9.6c2.4,0,4.8-1.2,6.6-3.3l1.2,0.6C202,41,198.3,43.6,193.2,43.6L193.2,43.6z M194,20.3 c-2.7,0-5,2.3-5.4,6.8c0,0,9.2-0.1,9.1-0.1C197.9,22.8,196.4,20.3,194,20.3z"></path> <path class="st0" d="M223.3,25.2c-1.6,0-2.7-1-3.3-2.1c-1.4,0.9-3.3,2.6-4.7,4.8v11.7c0,0.5,0.3,0.9,2,1l1.8,0.2l0.1,2.1H206 l0.2-2.1l1.2-0.2c1.3-0.1,1.8-0.4,1.8-1V26.9c0-3.3-0.4-3.8-2.3-4.3l-1-0.3l0-1.6l9.5-2.6v6.6h0.3c2.4-4,4.3-6.6,7.1-6.6 c2.3,0,3.8,1.4,3.8,3.7C226.5,23.6,225.3,25.2,223.3,25.2L223.3,25.2z"></path> <path class="st0" d="M245.7,43.7c-2.1,0-4.1-1.2-4.2-4.4h-0.3c-2,2.4-4.1,4.3-6.9,4.3c-3.4,0-6.5-2.3-6.5-6.3 c0-4.4,4.5-6.9,13.7-9.3v-0.4c0-4.6-1.9-6.5-5.2-6.5c-1.8,0-3.7,0.7-3.7,1c0,0.3,1.3,1.2,1.3,2.9c0,1.3-1.2,2.8-3.1,2.8 c-1.9,0-3.2-1.2-3.2-2.7c0-3.1,6.2-7.1,11.8-7.1c5.6,0,8.7,2.5,8.3,10.4l-0.4,8.7c0,1.6,0.3,2.3,1.3,2.3c0.6,0,1.4-0.5,2.5-1.3 l0.9,1.4C250.2,41.8,247.8,43.7,245.7,43.7z M241.3,30c-6.3,1.8-7.7,3.7-7.7,5.9c0,2.2,1.7,3.4,3.6,3.4c1.4,0,2.9-0.9,3.9-2 L241.3,30L241.3,30z"></path> <path class="st0" d="M262.4,43.6c-6.3,0-11.2-4.9-11.2-12c0-7.9,5.8-13.6,13.3-13.6c5.2,0,8.2,2.4,8.2,5.4c0,2.4-1.7,3.3-3.4,3.3 c-2.5,0-3.9-2.9-3.3-5.6V21c-0.5-0.3-1.3-0.5-2.2-0.5c-3.3,0-6,3-6,8.7s3,10,7.4,10c2.4,0,4.9-1.2,6.7-3.3l1.2,0.6 C271.3,41,267.6,43.6,262.4,43.6L262.4,43.6z"></path> <path class="st0" d="M300.7,20.8l-1.6,0.3c-1.3,0.2-1.9,1.1-2.8,3.2L290,40.9l-2.8,8.2c-1.6,4.7-3.5,6.8-6.6,6.8c-2.3,0-4-1.4-4-3.3 c0-1.6,1-3.2,3-3.2c1.8,0,2.9,1.1,3.4,2.2c0.9-0.4,1.5-1.4,2.3-3.9l1.1-3.3v-0.3l-9.4-21c-0.5-1.1-1-1.5-2.3-1.9l-1.2-0.5l-0.2-2.1 h13.1l-0.2,2.1l-1.6,0.4c-1,0.2-1.3,0.9-0.9,2l5.6,13.3l4.3-12.2c0.7-1.9,0.4-2.7-1-2.9l-1.8-0.6l-0.2-2h10.1L300.7,20.8L300.7,20.8 z"></path> <polygon class="st0" points="7.1,1 7.1,18.2 24.3,11.8 24.3,40.5 30.5,42.9 30.5,9.7 "></polygon> <polygon class="st1" points="0.9,53.7 24.3,45 24.3,11.8 0.9,20.5 "></polygon> <path class="st0" d="M304.9,23.9H304v-3.6h1.5c0.9,0,1.5,0.4,1.5,1.1c0,0.5-0.2,0.9-0.7,1l0.9,1.4h-1l-0.7-1.2h-0.6L304.9,23.9 L304.9,23.9z M305.4,22.1c0.5,0,0.7-0.2,0.7-0.6c0-0.3-0.2-0.5-0.7-0.5h-0.5v1.1H305.4L305.4,22.1z"></path> <path class="st0" d="M305.4,19.4c1.5,0,2.8,1.2,2.8,2.8c0,1.6-1.2,2.8-2.8,2.8c-1.6,0-2.8-1.2-2.8-2.8 C302.6,20.6,303.8,19.4,305.4,19.4 M305.4,18.8c-1.9,0-3.4,1.5-3.4,3.4c0,1.9,1.5,3.4,3.4,3.4c1.9,0,3.4-1.5,3.4-3.4 C308.8,20.3,307.3,18.8,305.4,18.8L305.4,18.8z"></path> </svg> 